# Blender v3.0.1 OBJ File: 'admin2.blend'
# www.blender.org
mtllib admin2.mtl
o Cylinder_Cylinder.002
v -0.000000 0.307848 -0.907808
v 0.177105 0.307848 -0.890365
v 0.347403 0.307848 -0.838706
v 0.504351 0.307848 -0.754815
v 0.641917 0.307848 -0.641917
v 0.754815 0.307848 -0.504351
v 0.838706 0.307848 -0.347403
v 0.890365 0.307848 -0.177105
v 0.907808 0.307848 0.000000
v 0.890365 0.307848 0.177105
v 0.838706 0.307848 0.347403
v 0.754815 0.307848 0.504351
v 0.641917 0.307848 0.641917
v 0.504351 0.307848 0.754815
v 0.347403 0.307848 0.838706
v 0.177105 0.307848 0.890365
v -0.000000 0.307848 0.907808
v -0.177105 0.307848 0.890365
v -0.347403 0.307848 0.838706
v -0.504351 0.307848 0.754815
v -0.641917 0.307848 0.641917
v -0.754815 0.307848 0.504351
v -0.838706 0.307848 0.347403
v -0.890365 0.307848 0.177105
v -0.907808 0.307848 -0.000000
v -0.890365 0.307848 -0.177105
v -0.838705 0.307848 -0.347403
v -0.754815 0.307848 -0.504351
v -0.641918 0.307848 -0.641917
v -0.504351 0.307848 -0.754815
v -0.347403 0.307848 -0.838706
v -0.177105 0.307848 -0.890365
v -0.000000 0.801797 -0.763529
v 0.000000 0.566464 -1.000000
v 0.148957 0.801797 -0.748858
v 0.195090 0.566464 -0.980785
v 0.292190 0.801797 -0.705409
v 0.382683 0.566464 -0.923880
v 0.424194 0.801797 -0.634851
v 0.555570 0.566464 -0.831470
v 0.539896 0.801797 -0.539896
v 0.707107 0.566464 -0.707107
v 0.634851 0.801797 -0.424194
v 0.831470 0.566464 -0.555570
v 0.705409 0.801797 -0.292190
v 0.923880 0.566464 -0.382683
v 0.748858 0.801797 -0.148957
v 0.980785 0.566464 -0.195090
v 0.763529 0.801797 0.000000
v 1.000000 0.566464 0.000000
v 0.748858 0.801797 0.148957
v 0.980785 0.566464 0.195090
v 0.705409 0.801797 0.292190
v 0.923880 0.566464 0.382683
v 0.634851 0.801797 0.424194
v 0.831470 0.566464 0.555570
v 0.539896 0.801797 0.539896
v 0.707107 0.566464 0.707107
v 0.424194 0.801797 0.634851
v 0.555570 0.566464 0.831470
v 0.292190 0.801797 0.705409
v 0.382683 0.566464 0.923880
v 0.148957 0.801797 0.748858
v 0.195090 0.566464 0.980785
v -0.000000 0.801797 0.763529
v -0.000000 0.566464 1.000000
v -0.148957 0.801797 0.748858
v -0.195090 0.566464 0.980785
v -0.292190 0.801797 0.705409
v -0.382683 0.566464 0.923880
v -0.424194 0.801797 0.634851
v -0.555570 0.566464 0.831470
v -0.539896 0.801797 0.539896
v -0.707107 0.566464 0.707107
v -0.634851 0.801797 0.424194
v -0.831469 0.566464 0.555570
v -0.705409 0.801797 0.292190
v -0.923880 0.566464 0.382684
v -0.748858 0.801797 0.148957
v -0.980785 0.566464 0.195090
v -0.763529 0.801797 -0.000000
v -1.000000 0.566464 -0.000000
v -0.748858 0.801797 -0.148957
v -0.980785 0.566464 -0.195090
v -0.705409 0.801797 -0.292190
v -0.923879 0.566464 -0.382684
v -0.634851 0.801797 -0.424194
v -0.831470 0.566464 -0.555570
v -0.539896 0.801797 -0.539896
v -0.707107 0.566464 -0.707107
v -0.424194 0.801797 -0.634851
v -0.555570 0.566464 -0.831470
v -0.292190 0.801797 -0.705409
v -0.382683 0.566464 -0.923880
v -0.148957 0.801797 -0.748858
v -0.195090 0.566464 -0.980785
vt 0.031250 0.826962
vt 0.031250 0.891616
vt 0.000000 0.891616
vt 0.001440 0.826962
vt 0.937500 0.826962
vt 0.937500 0.891616
vt 0.906250 0.891616
vt 0.906250 0.826962
vt 0.875000 0.891616
vt 0.875000 0.826962
vt 0.843750 0.891616
vt 0.843750 0.826962
vt 0.812500 0.891616
vt 0.812500 0.826962
vt 0.781250 0.891616
vt 0.781250 0.826962
vt 0.781250 0.891616
vt 0.750000 0.891616
vt 0.750000 0.826962
vt 0.718750 0.891616
vt 0.718750 0.826962
vt 0.687500 0.891616
vt 0.687500 0.826962
vt 0.656250 0.891616
vt 0.656250 0.826962
vt 0.625000 0.891616
vt 0.625000 0.826962
vt 0.593750 0.891616
vt 0.593750 0.826962
vt 0.562500 0.891616
vt 0.562500 0.826962
vt 0.531250 0.891616
vt 0.531250 0.826962
vt 0.500000 0.891616
vt 0.500000 0.826962
vt 0.468750 0.891616
vt 0.468750 0.826962
vt 0.437500 0.891616
vt 0.437500 0.826962
vt 0.406250 0.891616
vt 0.406250 0.826962
vt 0.375000 0.891616
vt 0.375000 0.826962
vt 0.343750 0.891616
vt 0.343750 0.826962
vt 0.312500 0.891616
vt 0.312500 0.826962
vt 0.281250 0.891616
vt 0.281250 0.826962
vt 0.250000 0.891616
vt 0.250000 0.826962
vt 0.218750 0.891616
vt 0.218750 0.826962
vt 0.187500 0.891616
vt 0.187500 0.826962
vt 0.156250 0.891616
vt 0.156250 0.826962
vt 0.125000 0.891616
vt 0.125000 0.826962
vt 0.093750 0.891616
vt 0.093750 0.826962
vt 0.062500 0.891616
vt 0.062500 0.826962
vt 0.998559 0.826962
vt 1.000000 0.891616
vt 0.968750 0.891616
vt 0.968750 0.826962
vt 0.750000 0.467874
vt 0.792505 0.463688
vt 0.833376 0.451289
vt 0.871044 0.431156
vt 0.904060 0.404060
vt 0.931156 0.371044
vt 0.951290 0.333377
vt 0.963688 0.292505
vt 0.967873 0.250000
vt 0.963688 0.207495
vt 0.951289 0.166623
vt 0.931156 0.128956
vt 0.904061 0.095940
vt 0.871044 0.068844
vt 0.833377 0.048711
vt 0.792505 0.036312
vt 0.750000 0.032126
vt 0.707495 0.036312
vt 0.666623 0.048711
vt 0.628956 0.068844
vt 0.595940 0.095940
vt 0.568844 0.128956
vt 0.548711 0.166623
vt 0.536312 0.207495
vt 0.532126 0.250000
vt 0.536312 0.292505
vt 0.548711 0.333377
vt 0.568844 0.371044
vt 0.595940 0.404060
vt 0.628956 0.431156
vt 0.666623 0.451289
vt 0.707495 0.463688
vt 0.996305 0.950449
vt 0.972445 0.950449
vt 0.965055 0.950449
vt 0.941195 0.950449
vt 0.933805 0.950449
vt 0.909945 0.950449
vt 0.902555 0.950449
vt 0.878695 0.950449
vt 0.871305 0.950449
vt 0.847445 0.950449
vt 0.840055 0.950449
vt 0.816195 0.950449
vt 0.808805 0.950449
vt 0.784945 0.950449
vt 0.777555 0.950449
vt 0.753695 0.950449
vt 0.746305 0.950449
vt 0.722445 0.950449
vt 0.715055 0.950449
vt 0.691195 0.950449
vt 0.683805 0.950449
vt 0.659945 0.950449
vt 0.652555 0.950449
vt 0.628695 0.950449
vt 0.621305 0.950449
vt 0.597445 0.950449
vt 0.590055 0.950449
vt 0.566195 0.950449
vt 0.558805 0.950449
vt 0.534945 0.950449
vt 0.527555 0.950449
vt 0.503695 0.950449
vt 0.496305 0.950449
vt 0.472445 0.950449
vt 0.465055 0.950449
vt 0.441195 0.950449
vt 0.433805 0.950449
vt 0.409945 0.950449
vt 0.402555 0.950449
vt 0.378695 0.950449
vt 0.371305 0.950449
vt 0.347445 0.950449
vt 0.340055 0.950449
vt 0.316195 0.950449
vt 0.308805 0.950449
vt 0.284945 0.950449
vt 0.277555 0.950449
vt 0.253695 0.950449
vt 0.246305 0.950449
vt 0.222445 0.950449
vt 0.215055 0.950449
vt 0.191195 0.950449
vt 0.183805 0.950449
vt 0.159945 0.950449
vt 0.152555 0.950449
vt 0.128695 0.950449
vt 0.121305 0.950449
vt 0.097445 0.950449
vt 0.090055 0.950449
vt 0.066195 0.950449
vt 0.058805 0.950449
vt 0.034945 0.950449
vt 0.027555 0.950449
vt 0.003695 0.950449
vt 0.285750 0.429726
vt 0.250000 0.433247
vt 0.214250 0.429726
vt 0.179874 0.419298
vt 0.148194 0.402364
vt 0.120425 0.379575
vt 0.097636 0.351806
vt 0.080702 0.320126
vt 0.070274 0.285750
vt 0.066753 0.250000
vt 0.070274 0.214250
vt 0.080702 0.179874
vt 0.097636 0.148193
vt 0.120425 0.120425
vt 0.148193 0.097636
vt 0.179874 0.080702
vt 0.214250 0.070274
vt 0.250000 0.066753
vt 0.285750 0.070274
vt 0.320126 0.080702
vt 0.351806 0.097636
vt 0.379575 0.120425
vt 0.402364 0.148193
vt 0.419298 0.179874
vt 0.429726 0.214250
vt 0.433247 0.250000
vt 0.429726 0.285750
vt 0.419298 0.320125
vt 0.402364 0.351807
vt 0.379575 0.379575
vt 0.351807 0.402364
vt 0.320126 0.419298
vn -0.0924 -0.3343 -0.9379
vn 0.4443 -0.3343 -0.8312
vn 0.5979 -0.3343 -0.7285
vn 0.7285 -0.3343 -0.5979
vn 0.8312 -0.3343 -0.4443
vn 0.9019 -0.3343 -0.2736
vn 0.9379 -0.3343 -0.0924
vn 0.9379 -0.3343 0.0924
vn 0.9019 -0.3343 0.2736
vn 0.8312 -0.3343 0.4443
vn 0.7285 -0.3343 0.5979
vn 0.5979 -0.3343 0.7285
vn 0.4443 -0.3343 0.8312
vn 0.2736 -0.3343 0.9019
vn 0.0924 -0.3343 0.9379
vn -0.0924 -0.3343 0.9379
vn -0.2736 -0.3343 0.9019
vn -0.4443 -0.3343 0.8312
vn -0.5979 -0.3343 0.7285
vn -0.7285 -0.3343 0.5979
vn -0.8312 -0.3343 0.4443
vn -0.9019 -0.3343 0.2736
vn -0.9379 -0.3343 0.0924
vn -0.9379 -0.3343 -0.0924
vn -0.9019 -0.3343 -0.2736
vn -0.8312 -0.3343 -0.4443
vn -0.7285 -0.3343 -0.5979
vn -0.5979 -0.3343 -0.7285
vn -0.4443 -0.3343 -0.8312
vn -0.2736 -0.3343 -0.9019
vn 0.0924 -0.3343 -0.9379
vn 0.2736 -0.3343 -0.9019
vn 0.0000 -1.0000 -0.0000
vn 0.0693 0.7071 -0.7037
vn 0.2053 0.7071 -0.6767
vn 0.3333 0.7071 -0.6236
vn 0.4486 0.7071 -0.5466
vn 0.5466 0.7071 -0.4486
vn 0.6236 0.7071 -0.3333
vn 0.6767 0.7071 -0.2053
vn 0.7037 0.7071 -0.0693
vn 0.7037 0.7071 0.0693
vn 0.6767 0.7071 0.2053
vn 0.6236 0.7071 0.3333
vn 0.5466 0.7071 0.4486
vn 0.4486 0.7071 0.5466
vn 0.3333 0.7071 0.6236
vn 0.2053 0.7071 0.6767
vn 0.0693 0.7071 0.7037
vn -0.0693 0.7071 0.7037
vn -0.2053 0.7071 0.6767
vn -0.3333 0.7071 0.6236
vn -0.4486 0.7071 0.5466
vn -0.5466 0.7071 0.4486
vn -0.6236 0.7071 0.3333
vn -0.6767 0.7071 0.2053
vn -0.7037 0.7071 0.0693
vn -0.7037 0.7071 -0.0693
vn -0.6767 0.7071 -0.2053
vn -0.6236 0.7071 -0.3333
vn -0.5466 0.7071 -0.4486
vn -0.4486 0.7071 -0.5466
vn -0.3333 0.7071 -0.6236
vn -0.2053 0.7071 -0.6767
vn -0.0693 0.7071 -0.7037
vn 0.0000 1.0000 0.0000
usemtl None
s off
f 32/1/1 96/2/1 34/3/1 1/4/1
f 3/5/2 38/6/2 40/7/2 4/8/2
f 4/8/3 40/7/3 42/9/3 5/10/3
f 5/10/4 42/9/4 44/11/4 6/12/4
f 6/12/5 44/11/5 46/13/5 7/14/5
f 7/14/6 46/13/6 48/15/6 8/16/6
f 8/16/7 48/17/7 50/18/7 9/19/7
f 9/19/8 50/18/8 52/20/8 10/21/8
f 10/21/9 52/20/9 54/22/9 11/23/9
f 11/23/10 54/22/10 56/24/10 12/25/10
f 12/25/11 56/24/11 58/26/11 13/27/11
f 13/27/12 58/26/12 60/28/12 14/29/12
f 14/29/13 60/28/13 62/30/13 15/31/13
f 15/31/14 62/30/14 64/32/14 16/33/14
f 16/33/15 64/32/15 66/34/15 17/35/15
f 17/35/16 66/34/16 68/36/16 18/37/16
f 18/37/17 68/36/17 70/38/17 19/39/17
f 19/39/18 70/38/18 72/40/18 20/41/18
f 20/41/19 72/40/19 74/42/19 21/43/19
f 21/43/20 74/42/20 76/44/20 22/45/20
f 22/45/21 76/44/21 78/46/21 23/47/21
f 23/47/22 78/46/22 80/48/22 24/49/22
f 24/49/23 80/48/23 82/50/23 25/51/23
f 25/51/24 82/50/24 84/52/24 26/53/24
f 26/53/25 84/52/25 86/54/25 27/55/25
f 27/55/26 86/54/26 88/56/26 28/57/26
f 28/57/27 88/56/27 90/58/27 29/59/27
f 29/59/28 90/58/28 92/60/28 30/61/28
f 30/61/29 92/60/29 94/62/29 31/63/29
f 31/63/30 94/62/30 96/2/30 32/1/30
f 1/64/31 34/65/31 36/66/31 2/67/31
f 2/67/32 36/66/32 38/6/32 3/5/32
f 1/68/33 2/69/33 3/70/33 4/71/33 5/72/33 6/73/33 7/74/33 8/75/33 9/76/33 10/77/33 11/78/33 12/79/33 13/80/33 14/81/33 15/82/33 16/83/33 17/84/33 18/85/33 19/86/33 20/87/33 21/88/33 22/89/33 23/90/33 24/91/33 25/92/33 26/93/33 27/94/33 28/95/33 29/96/33 30/97/33 31/98/33 32/99/33
f 36/66/34 34/65/34 33/100/34 35/101/34
f 38/6/35 36/66/35 35/102/35 37/103/35
f 40/7/36 38/6/36 37/104/36 39/105/36
f 42/9/37 40/7/37 39/106/37 41/107/37
f 44/11/38 42/9/38 41/108/38 43/109/38
f 46/13/39 44/11/39 43/110/39 45/111/39
f 48/15/40 46/13/40 45/112/40 47/113/40
f 50/18/41 48/17/41 47/114/41 49/115/41
f 52/20/42 50/18/42 49/116/42 51/117/42
f 54/22/43 52/20/43 51/118/43 53/119/43
f 56/24/44 54/22/44 53/120/44 55/121/44
f 58/26/45 56/24/45 55/122/45 57/123/45
f 60/28/46 58/26/46 57/124/46 59/125/46
f 62/30/47 60/28/47 59/126/47 61/127/47
f 64/32/48 62/30/48 61/128/48 63/129/48
f 66/34/49 64/32/49 63/130/49 65/131/49
f 68/36/50 66/34/50 65/132/50 67/133/50
f 70/38/51 68/36/51 67/134/51 69/135/51
f 72/40/52 70/38/52 69/136/52 71/137/52
f 74/42/53 72/40/53 71/138/53 73/139/53
f 76/44/54 74/42/54 73/140/54 75/141/54
f 78/46/55 76/44/55 75/142/55 77/143/55
f 80/48/56 78/46/56 77/144/56 79/145/56
f 82/50/57 80/48/57 79/146/57 81/147/57
f 84/52/58 82/50/58 81/148/58 83/149/58
f 86/54/59 84/52/59 83/150/59 85/151/59
f 88/56/60 86/54/60 85/152/60 87/153/60
f 90/58/61 88/56/61 87/154/61 89/155/61
f 92/60/62 90/58/62 89/156/62 91/157/62
f 94/62/63 92/60/63 91/158/63 93/159/63
f 96/2/64 94/62/64 93/160/64 95/161/64
f 34/3/65 96/2/65 95/162/65 33/163/65
f 35/164/66 33/165/66 95/166/66 93/167/66 91/168/66 89/169/66 87/170/66 85/171/66 83/172/66 81/173/66 79/174/66 77/175/66 75/176/66 73/177/66 71/178/66 69/179/66 67/180/66 65/181/66 63/182/66 61/183/66 59/184/66 57/185/66 55/186/66 53/187/66 51/188/66 49/189/66 47/190/66 45/191/66 43/192/66 41/193/66 39/194/66 37/195/66
