<?xml version="1.0" encoding="UTF-8" standalone="no"?>
<svg
   xmlns:dc="http://purl.org/dc/elements/1.1/"
   xmlns:cc="http://creativecommons.org/ns#"
   xmlns:rdf="http://www.w3.org/1999/02/22-rdf-syntax-ns#"
   xmlns:svg="http://www.w3.org/2000/svg"
   xmlns="http://www.w3.org/2000/svg"
   xmlns:sodipodi="http://sodipodi.sourceforge.net/DTD/sodipodi-0.dtd"
   xmlns:inkscape="http://www.inkscape.org/namespaces/inkscape"
   height="16"
   viewBox="0 0 16 16"
   width="16"
   version="1.1"
   id="svg922"
   sodipodi:docname="beholder.svg"
   inkscape:version="1.0.1 (3bc2e813f5, 2020-09-07)">
  <metadata
     id="metadata928">
    <rdf:RDF>
      <cc:Work
         rdf:about="">
        <dc:format>image/svg+xml</dc:format>
        <dc:type
           rdf:resource="http://purl.org/dc/dcmitype/StillImage" />
        <dc:title></dc:title>
      </cc:Work>
    </rdf:RDF>
  </metadata>
  <defs
     id="defs926" />
  <sodipodi:namedview
     pagecolor="#ffffff"
     bordercolor="#666666"
     borderopacity="1"
     objecttolerance="10"
     gridtolerance="10"
     guidetolerance="10"
     inkscape:pageopacity="0"
     inkscape:pageshadow="2"
     inkscape:window-width="1920"
     inkscape:window-height="1014"
     id="namedview924"
     showgrid="false"
     inkscape:zoom="50.875"
     inkscape:cx="7.980344"
     inkscape:cy="8.7862408"
     inkscape:window-x="1920"
     inkscape:window-y="0"
     inkscape:window-maximized="1"
     inkscape:current-layer="svg922" />
  <path
     d="m8 2c-2.5567 0-5.7907 1.9477-6.9551 5.7051a1.0001 1.0001 0 0 0 -.00586.57031c1.1244 3.9354 4.4609 5.7246 6.9609 5.7246s5.8365-1.7892 6.9609-5.7246a1.0001 1.0001 0 0 0 0-.55273c-1.1003-3.7876-4.4066-5.7227-6.9609-5.7227zm0 2a4 4 0 0 1 4 4 4 4 0 0 1 -4 4 4 4 0 0 1 -4-4 4 4 0 0 1 4-4zm0 2a2 2 0 0 0 -2 2 2 2 0 0 0 2 2 2 2 0 0 0 2-2 2 2 0 0 0 -2-2z"
     fill="#e0e0e0"
     fill-opacity=".99608"
     fill-rule="evenodd"
     id="path920"
     style="fill:#fc9c9c;fill-opacity:1" />
  <path
     d="M 2.9609081,8.2734592 1.039,7.7246292 c 0.3199914,-1.12 0.8236034,-2.0593 1.431606,-2.8398 l -0.8339835,-0.83398 1.4141059,-1.4141 0.8437536,0.84375 C 4.8803362,2.7328791 5.9710909,2.2737992 6.9999953,2.0937999 V 1 h 2.0000084 v 1.0937999 c 1.0288043,0.1799794 2.1196093,0.6390993 3.1055133,1.3866993 l 0.843753,-0.84375 1.414106,1.4141 -0.833983,0.83398 c 0.608042,0.78055 1.111704,1.7199 1.431607,2.8397999 l -1.921909,0.5488301 c -0.875604,-3.0646 -3.5391152,-4.2734 -5.0391215,-4.2734 -1.5000063,0 -4.1635176,1.2088 -5.0391214,4.2734 z"
     fill="#e0e0e0"
     fill-opacity=".99608"
     fill-rule="evenodd"
     id="path1595"
     style="fill:#fc9c9c;fill-opacity:0.99608;stroke-width:0.999998" />
</svg>
