# Blender v3.0.1 OBJ File: 'mine.blend'
# www.blender.org
mtllib mine.mtl
o Icosphere
v 0.000000 0.220000 0.000000
v 0.162456 0.145327 0.499995
v 0.525730 0.145326 0.000000
v -0.425323 0.145327 0.309011
v -0.425323 0.145327 -0.309011
v 0.162456 0.145327 -0.499995
v 0.648929 -0.005000 0.499997
v 0.247362 -0.005000 0.761316
v -0.275000 -0.005000 0.771675
v -0.647615 -0.005000 0.470514
v -0.818886 -0.005000 -0.023076
v -0.647615 -0.005000 -0.470514
v -0.231109 -0.005000 -0.785937
v 0.247362 -0.005000 -0.761316
v 0.676057 -0.005000 -0.462659
v 0.800493 -0.005000 0.000000
v 0.648929 -0.005000 -0.499997
v -0.275000 -0.005000 -0.771675
v -0.818886 -0.005000 0.023076
v -0.231109 -0.005000 0.785937
v 0.676057 -0.005000 0.462659
v -0.200000 0.160000 0.100000
v -0.200000 0.660000 0.100000
v -0.200000 0.160000 -0.100000
v -0.200000 0.660000 -0.100000
v 0.200000 0.160000 0.100000
v 0.200000 0.660000 0.100000
v 0.200000 0.160000 -0.100000
v 0.200000 0.660000 -0.100000
v -0.092388 0.330978 -0.100000
v -0.083147 0.381115 -0.100000
v -0.070711 0.425061 -0.100000
v -0.055557 0.461126 -0.100000
v 0.000000 0.510000 -0.100000
v -0.019509 0.504428 -0.100000
v 0.038268 0.487925 -0.100000
v 0.019509 0.504428 -0.100000
v -0.038268 0.487925 -0.100000
v -0.100000 0.220000 -0.100000
v -0.098079 0.163424 -0.100000
v -0.098079 0.276576 -0.100000
v 0.070711 0.425061 -0.100000
v 0.055557 0.461126 -0.100000
v -0.097720 0.160000 -0.100000
v 0.100000 0.220000 -0.100000
v 0.098079 0.163424 -0.100000
v 0.098079 0.276576 -0.100000
v 0.097720 0.160000 -0.100000
v 0.092388 0.330978 -0.100000
v 0.083147 0.381115 -0.100000
v -0.038268 0.487925 0.100000
v -0.019509 0.504428 0.100000
v 0.000000 0.510000 0.100000
v 0.019509 0.504428 0.100000
v 0.092388 0.330978 0.100000
v 0.083147 0.381115 0.100000
v 0.070711 0.425061 0.100000
v 0.055557 0.461126 0.100000
v 0.038268 0.487925 0.100000
v -0.098079 0.163424 0.100000
v -0.100000 0.220000 0.100000
v -0.097720 0.160000 0.100000
v -0.098079 0.276576 0.100000
v -0.092388 0.330978 0.100000
v -0.083147 0.381115 0.100000
v -0.070711 0.425061 0.100000
v -0.055557 0.461126 0.100000
v 0.100000 0.220000 0.100000
v 0.098079 0.163424 0.100000
v 0.097720 0.160000 0.100000
v 0.098079 0.276576 0.100000
vt 0.227273 0.393651
vt 0.193399 0.334979
vt 0.269334 0.320800
vt 0.087515 0.320800
vt 0.045455 0.393651
vt 0.011580 0.334979
vt 0.738853 0.334979
vt 0.814788 0.320800
vt 0.772727 0.393651
vt 0.557035 0.334979
vt 0.632970 0.320800
vt 0.590909 0.393651
vt 0.451152 0.320800
vt 0.409092 0.393651
vt 0.375218 0.334979
vt 0.500000 0.393651
vt 0.454546 0.472382
vt 0.457940 0.320800
vt 0.533875 0.334979
vt 0.681818 0.393651
vt 0.636364 0.472382
vt 0.639758 0.320800
vt 0.715693 0.334979
vt 0.863636 0.393651
vt 0.818182 0.472382
vt 0.821576 0.320800
vt 0.897511 0.334979
vt 0.136365 0.393651
vt 0.090910 0.472382
vt 0.094304 0.320800
vt 0.170239 0.334979
vt 0.318182 0.393651
vt 0.272728 0.472382
vt 0.276122 0.320800
vt 0.352056 0.334979
vt 0.163169 0.184726
vt 0.140205 0.246799
vt 0.140205 0.253201
vt 0.163169 0.315274
vt 0.213129 0.357053
vt 0.219013 0.359032
vt 0.283166 0.355616
vt 0.337007 0.319364
vt 0.340645 0.314184
vt 0.357329 0.250000
vt 0.340645 0.185816
vt 0.337007 0.180636
vt 0.283166 0.144384
vt 0.219013 0.140968
vt 0.213129 0.142947
vt 0.375000 0.000000
vt 0.625000 0.000000
vt 0.625000 0.250000
vt 0.375000 0.250000
vt 0.376712 0.313701
vt 0.375000 0.313925
vt 0.625000 0.500000
vt 0.375000 0.500000
vt 0.375000 0.436075
vt 0.376712 0.436299
vt 0.405000 0.437500
vt 0.433288 0.436299
vt 0.460489 0.432742
vt 0.485558 0.426967
vt 0.507530 0.419194
vt 0.525563 0.409723
vt 0.538962 0.398918
vt 0.547214 0.387193
vt 0.550000 0.375000
vt 0.547214 0.362807
vt 0.538962 0.351082
vt 0.525563 0.340277
vt 0.507530 0.330806
vt 0.485558 0.323033
vt 0.460489 0.317258
vt 0.433288 0.313701
vt 0.405000 0.312500
vt 0.625000 0.750000
vt 0.375000 0.750000
vt 0.376712 0.813701
vt 0.375000 0.813925
vt 0.625000 1.000000
vt 0.375000 1.000000
vt 0.375000 0.936075
vt 0.376712 0.936299
vt 0.405000 0.937500
vt 0.433288 0.936299
vt 0.460489 0.932742
vt 0.485558 0.926967
vt 0.507530 0.919194
vt 0.525563 0.909723
vt 0.538962 0.898918
vt 0.547214 0.887193
vt 0.550000 0.875000
vt 0.547214 0.862807
vt 0.538962 0.851082
vt 0.525563 0.840277
vt 0.507530 0.830806
vt 0.485558 0.823033
vt 0.460489 0.817258
vt 0.433288 0.813701
vt 0.405000 0.812500
vt 0.311075 0.500000
vt 0.311075 0.750000
vt 0.125000 0.750000
vt 0.125000 0.500000
vt 0.188925 0.500000
vt 0.188925 0.750000
vt 0.875000 0.500000
vt 0.875000 0.750000
vt 1.000000 0.725000
vt 0.968750 0.725000
vt 0.968750 0.775000
vt 1.000000 0.775000
vt 0.937500 0.725000
vt 0.937500 0.775000
vt 0.906250 0.725000
vt 0.906250 0.775000
vt 0.875000 0.725000
vt 0.875000 0.775000
vt 0.843750 0.725000
vt 0.843750 0.775000
vt 0.812500 0.725000
vt 0.812500 0.775000
vt 0.781250 0.725000
vt 0.781250 0.775000
vt 0.750000 0.725000
vt 0.750000 0.775000
vt 0.718750 0.725000
vt 0.718750 0.775000
vt 0.716783 0.725000
vt 0.716783 0.775000
vt 0.283217 0.725000
vt 0.281250 0.725000
vt 0.281250 0.775000
vt 0.283217 0.775000
vt 0.250000 0.725000
vt 0.250000 0.775000
vt 0.218750 0.725000
vt 0.218750 0.775000
vt 0.187500 0.725000
vt 0.187500 0.775000
vt 0.156250 0.725000
vt 0.156250 0.775000
vt 0.125000 0.725000
vt 0.125000 0.775000
vt 0.093750 0.725000
vt 0.093750 0.775000
vt 0.062500 0.725000
vt 0.062500 0.775000
vt 0.031250 0.725000
vt 0.031250 0.775000
vt 0.000000 0.725000
vt 0.000000 0.775000
vn 0.2689 0.8701 0.4132
vn -0.3099 0.8701 0.3834
vn -0.4604 0.8701 -0.1762
vn 0.0253 0.8701 -0.4923
vn 0.4760 0.8701 -0.1280
vn 0.1399 0.9849 -0.1016
vn 0.2887 0.9342 -0.2097
vn 0.2689 0.8701 -0.4132
vn -0.0534 0.9849 -0.1645
vn -0.1103 0.9342 -0.3394
vn -0.3099 0.8701 -0.3834
vn -0.1729 0.9849 0.0000
vn -0.3568 0.9342 0.0000
vn -0.4604 0.8701 0.1762
vn -0.0534 0.9849 0.1645
vn -0.1103 0.9342 0.3394
vn 0.0253 0.8701 0.4923
vn 0.1399 0.9849 0.1016
vn 0.2887 0.9342 0.2097
vn 0.4760 0.8701 0.1280
vn 0.0000 -1.0000 0.0000
vn -1.0000 0.0000 0.0000
vn 0.0000 0.0000 -1.0000
vn 1.0000 0.0000 0.0000
vn 0.0000 0.0000 1.0000
vn 0.0000 1.0000 0.0000
vn -0.2746 -0.9615 0.0000
vn -0.6605 -0.7508 0.0000
vn -0.8403 -0.5421 0.0000
vn -0.9219 -0.3874 0.0000
vn -0.9622 -0.2723 0.0000
vn -0.9834 -0.1813 0.0000
vn -0.9946 -0.1040 0.0000
vn -0.9994 -0.0339 0.0000
vn -0.9994 0.0339 0.0000
vn -0.9946 0.1040 0.0000
vn 0.9946 0.1040 0.0000
vn 0.9994 0.0339 0.0000
vn 0.9994 -0.0339 0.0000
vn 0.9946 -0.1040 0.0000
vn 0.9834 -0.1813 0.0000
vn 0.9622 -0.2723 0.0000
vn 0.9219 -0.3874 0.0000
vn 0.8403 -0.5421 0.0000
vn 0.6605 -0.7508 0.0000
vn 0.2746 -0.9615 0.0000
usemtl None
s off
f 2/1/1 8/2/1 7/3/1
f 9/4/2 4/5/2 10/6/2
f 12/7/3 11/8/3 5/9/3
f 14/10/4 13/11/4 6/12/4
f 15/13/5 3/14/5 16/15/5
f 3/14/6 6/16/6 1/17/6
f 6/16/7 3/14/7 15/13/7 17/18/7
f 14/19/8 6/16/8 17/18/8
f 6/12/9 5/20/9 1/21/9
f 18/22/10 5/20/10 6/12/10 13/11/10
f 5/20/11 18/22/11 12/23/11
f 5/9/12 4/24/12 1/25/12
f 4/24/13 5/9/13 11/8/13 19/26/13
f 19/26/14 10/27/14 4/24/14
f 4/5/15 2/28/15 1/29/15
f 20/30/16 2/28/16 4/5/16 9/4/16
f 8/31/17 2/28/17 20/30/17
f 2/1/18 3/32/18 1/33/18
f 7/3/19 21/34/19 3/32/19 2/1/19
f 16/35/20 3/32/20 21/34/20
f 10/36/21 19/37/21 11/38/21 12/39/21 18/40/21 13/41/21 14/42/21 17/43/21 15/44/21 16/45/21 21/46/21 7/47/21 8/48/21 20/49/21 9/50/21
f 22/51/22 23/52/22 25/53/22 24/54/22
f 40/55/23 44/56/23 24/54/23 25/53/23 29/57/23 28/58/23 48/59/23 46/60/23 45/61/23 47/62/23 49/63/23 50/64/23 42/65/23 43/66/23 36/67/23 37/68/23 34/69/23 35/70/23 38/71/23 33/72/23 32/73/23 31/74/23 30/75/23 41/76/23 39/77/23
f 28/58/24 29/57/24 27/78/24 26/79/24
f 69/80/25 70/81/25 26/79/25 27/78/25 23/82/25 22/83/25 62/84/25 60/85/25 61/86/25 63/87/25 64/88/25 65/89/25 66/90/25 67/91/25 51/92/25 52/93/25 53/94/25 54/95/25 59/96/25 58/97/25 57/98/25 56/99/25 55/100/25 71/101/25 68/102/25
f 48/103/21 28/58/21 26/79/21 70/104/21
f 22/105/21 24/106/21 44/107/21 62/108/21
f 29/57/26 25/109/26 23/110/26 27/78/26
f 34/111/27 37/112/27 54/113/27 53/114/27
f 37/112/28 36/115/28 59/116/28 54/113/28
f 59/116/29 36/115/29 43/117/29 58/118/29
f 58/118/30 43/117/30 42/119/30 57/120/30
f 57/120/31 42/119/31 50/121/31 56/122/31
f 56/122/32 50/121/32 49/123/32 55/124/32
f 55/124/33 49/123/33 47/125/33 71/126/33
f 71/126/34 47/125/34 45/127/34 68/128/34
f 68/128/35 45/127/35 46/129/35 69/130/35
f 69/130/36 46/129/36 48/131/36 70/132/36
f 44/133/37 40/134/37 60/135/37 62/136/37
f 40/134/38 39/137/38 61/138/38 60/135/38
f 39/137/39 41/139/39 63/140/39 61/138/39
f 41/139/40 30/141/40 64/142/40 63/140/40
f 30/141/41 31/143/41 65/144/41 64/142/41
f 31/143/42 32/145/42 66/146/42 65/144/42
f 32/145/43 33/147/43 67/148/43 66/146/43
f 67/148/44 33/147/44 38/149/44 51/150/44
f 38/149/45 35/151/45 52/152/45 51/150/45
f 35/151/46 34/153/46 53/154/46 52/152/46
